Results
version=1
nRows=17
nColumns=24
inDegrees=yes
endheader
time	pelvis_tilt	pelvis_list	pelvis_rotation	pelvis_tx	pelvis_ty	pelvis_tz	hip_flexion_r	hip_adduction_r	hip_rotation_r	knee_angle_r	ankle_angle_r	subtalar_angle_r	mtp_angle_r	hip_flexion_l	hip_adduction_l	hip_rotation_l	knee_angle_l	ankle_angle_l	subtalar_angle_l	mtp_angle_l	lumbar_extension	lumbar_bending	lumbar_rotation
      1.50450000	     -5.44462421	     -3.80594908	    -11.49273179	      0.95045054	      0.98220805	      0.30567182	    -12.09508929	      6.54380061	     10.78622811	    -16.55609135	     12.34497755	      0.57921754	     14.50311414	     34.34054651	     -8.56534582	    -11.46631199	     -0.87498184	     13.26549824	     -1.61415385	      4.94102371	      3.46307116	      2.76684590	     12.26963233
      1.50866667	     -5.49492967	     -3.73499712	    -11.60408662	      0.95660655	      0.98140279	      0.30525270	    -12.30296815	      6.33265092	     10.72837042	    -16.68145272	     12.15139591	      0.80988493	     14.57779088	     34.36285665	     -8.50896150	    -11.14270574	     -1.39103740	     13.45645698	     -1.96466644	      4.96095195	      3.64764228	      2.72383777	     12.53798381
      1.51283333	     -5.50390286	     -3.67195238	    -11.67930191	      0.96283831	      0.98064833	      0.30478385	    -12.56414472	      6.12730201	     10.63654410	    -16.78647536	     11.87182745	      0.95537497	     14.63437244	     34.33421562	     -8.42966344	    -10.80183101	     -1.89505100	     13.61624073	     -2.29103493	      4.98311053	      3.79261883	      2.67554368	     12.64043423
      1.51700000	     -5.52763194	     -3.57997176	    -11.77745689	      0.96910779	      0.97988290	      0.30430170	    -12.78747531	      5.88763242	     10.56589076	    -16.92751907	     11.62698520	      1.15320274	     14.79872356	     34.27817318	     -8.32059841	    -10.37924330	     -2.32654729	     13.58324770	     -2.91570151	      5.03504431	      3.92786282	      2.62664105	     12.80492031
      1.52116667	     -5.56673681	     -3.48669247	    -11.86222755	      0.97544496	      0.97910162	      0.30380031	    -12.98897892	      5.65385252	     10.47656132	    -17.07839228	     11.33440026	      1.31207659	     15.00763139	     34.24470123	     -8.20635114	    -10.01664845	     -2.78193698	     13.57657777	     -3.38742729	      5.10455440	      4.11714969	      2.56968662	     12.92197401
      1.52533333	     -5.59282622	     -3.38630685	    -11.93615106	      0.98183536	      0.97833920	      0.30326387	    -13.19604373	      5.41075758	     10.37311514	    -17.24158855	     11.03106407	      1.47553083	     15.27945027	     34.18623511	     -8.07168959	     -9.66721637	     -3.20821221	     13.47699389	     -3.85633668	      5.21336968	      4.29629824	      2.50426349	     13.03617857
      1.52950000	     -5.62101056	     -3.27378481	    -12.01073681	      0.98827951	      0.97758977	      0.30273674	    -13.38749304	      5.15813144	     10.26189078	    -17.42499237	     10.65803683	      1.58095652	     15.34751066	     34.13943493	     -7.93424973	     -9.47733425	     -3.66529845	     13.42777154	     -4.02336200	      5.24750606	      4.49677136	      2.41656497	     13.08287426
      1.53366667	     -5.67061737	     -3.14358944	    -12.08356590	      0.99474554	      0.97680753	      0.30216422	    -13.53081641	      4.88971671	     10.13248800	    -17.65395294	     10.36720421	      1.77532840	     15.65372056	     34.07816662	     -7.75981335	     -9.07013411	     -4.03427712	     13.10017382	     -4.72666502	      5.39473220	      4.70301645	      2.32832971	     13.25898457
      1.53783333	     -5.71507234	     -3.00167391	    -12.12928489	      1.00129482	      0.97604338	      0.30155815	    -13.68454836	      4.61636831	      9.99920284	    -17.86822725	     10.01099163	      1.89863642	     16.00524158	     34.01972033	     -7.56392586	     -8.77307553	     -4.40751260	     12.77320894	     -5.15473599	      5.57044342	      4.95068117	      2.20547096	     13.33229128
      1.54200000	     -5.73268522	     -2.86287342	    -12.18755959	      1.00782760	      0.97535007	      0.30096509	    -13.84945028	      4.34101480	      9.88327411	    -18.09818008	      9.48746924	      1.91577171	     18.67625263	     33.92968933	     -7.37519600	     -8.53603335	     -4.77654342	     12.39885765	     -5.57960977	      6.96264752	      5.11258993	      2.09761264	     13.24889791
      1.54616667	     -5.80561467	     -2.69376628	    -12.22730394	      1.01442031	      0.97456456	      0.30032664	    -13.91978529	      4.04751088	      9.69156762	    -18.40282852	      9.13843696	      2.12955658	     18.74026730	     33.92486362	     -7.16090744	     -8.38156130	     -5.17942672	     11.96186732	     -5.87010790	      7.00165222	      5.41095111	      1.96319234	     13.45724265
      1.55033333	     -5.84466562	     -2.52790419	    -12.27615506	      1.02099729	      0.97386081	      0.29966940	    -14.00255065	      3.74947283	      9.50699928	    -18.74282531	      8.70352155	      2.25344329	     18.89328354	     33.86205878	     -6.93860923	     -8.14371239	     -5.53184317	     11.40700478	     -6.35083416	      7.09176786	      5.62764989	      1.84929897	     13.53987021
      1.55450000	     -5.89872724	     -2.34854355	    -12.29493191	      1.02762381	      0.97315997	      0.29898937	    -14.06692696	      3.45298166	      9.31543011	    -19.08083066	      8.22977820	      2.36812046	     19.13251029	     33.82662666	     -6.69387865	     -7.93120426	     -5.88928579	     10.77767447	     -6.78305872	      7.23110845	      5.88541382	      1.70185283	     13.58352748
      1.55866667	     -5.95175681	     -2.15587110	    -12.30073666	      1.03423235	      0.97247485	      0.29828192	    -14.10626863	      3.14868399	      9.10524392	    -19.45780421	      7.73540636	      2.46987180	     19.45245813	     33.80839657	     -6.43108827	     -7.72325326	     -6.26757820	     10.10281956	     -7.21129729	      7.41901949	      6.14381078	      1.52936973	     13.61935488
      1.56283333	     -6.01086000	     -1.91455363	    -12.31026161	      1.04090217	      0.97181372	      0.29760180	    -14.11326140	      2.79958753	      8.89500301	    -19.86988443	      7.24930888	      2.52265761	     19.68735106	     33.81137407	     -6.13519751	     -7.64439288	     -6.67043623	      9.42602238	     -7.51308240	      7.54739182	      6.42071437	      1.27454560	     13.63433812
      1.56700000	     -6.05874302	     -1.69216831	    -12.27574686	      1.04754980	      0.97118861	      0.29680316	    -14.10853789	      2.47215228	      8.59500777	    -20.32237225	      6.69778569	      2.60334543	     20.00688217	     33.81585025	     -5.82405485	     -7.45731771	     -7.08069939	      8.66828382	     -7.93384729	      7.72251746	      6.69048788	      1.09747007	     13.63102639
      1.57116667	     -6.11502412	     -1.46216105	    -12.22969009	      1.05421431	      0.97060364	      0.29600495	    -14.08422764	      2.14750492	      8.31034156	    -20.78475280	      6.08465585	      2.70758892	     20.51605745	     33.84083193	     -5.50403772	     -7.25515932	     -7.51101917	      7.87603816	     -8.36089121	      7.98296666	      6.95980394	      0.88766362	     13.63423844
